<svg xmlns="http://www.w3.org/2000/svg" width="26" height="26.506" viewBox="0 0 26 26.506">
  <g id="Check_in" data-name="Check in" transform="translate(-9314 -7368)">
    <rect id="Rectangle_6592" data-name="Rectangle 6592" width="26" height="26.506" rx="4" transform="translate(9314 7368)" fill="#f1efff"/>
    <path id="noun-login-2767594" d="M131.461,9.343l2.2,2.2a.667.667,0,0,1-.944.944l-3.337-3.337a.667.667,0,0,1,0-.944l3.337-3.337a.667.667,0,0,1,.944.944l-2.2,2.2h5.73a.667.667,0,0,1,0,1.335Zm3.06,6.673V14.682a.667.667,0,0,1,1.335,0v2a.667.667,0,0,1-.667.667H124.511a.667.667,0,0,1-.667-.667V.667A.667.667,0,0,1,124.511,0h10.678a.667.667,0,0,1,.667.667v2a.667.667,0,0,1-1.335,0V1.335h-9.343V16.016Zm-7.341-9.343a.667.667,0,0,1,1.335,0v4a.667.667,0,0,1-1.335,0Z" transform="translate(9196.156 7373)" fill="#5a5fc7"/>
  </g>
</svg>
