<svg xmlns="http://www.w3.org/2000/svg" width="221" height="70.782" viewBox="0 0 221 70.782">
  <g id="Congrats" transform="translate(-332 -1643.218)">
    <text id="Congrats_You_get_special_discount" data-name="Congrats !

You get special discount" transform="translate(332 1657)" fill="#060e9f" font-size="24" font-family="SFProDisplay-Bold, SF Pro Display" font-weight="700"><tspan x="-56" y="23">Congrats !</tspan><tspan x="0" y="38"></tspan><tspan font-size="16" font-family="SFProDisplay-Medium, SF Pro Display" font-weight="500"><tspan x="-83" y="53">You get special discount</tspan></tspan></text>
    <g id="_ëîé_1" data-name="—ëîé_1" transform="translate(370.896 1643.219)">
      <g id="Group_21753" data-name="Group 21753" transform="translate(-0.001 -0.001)">
        <path id="Path_23413" data-name="Path 23413" d="M156.745,10.97l.785,2.494,2.5.768L157.9,15.747l.039,2.611-2.1-1.553-2.472.846.83-2.478-1.57-2.088,2.617.022Z" transform="translate(-33.396 -4.862)" fill="#0d906d"/>
        <path id="Path_23414" data-name="Path 23414" d="M178.454,45.48l1.275,1.475,1.938-.212-1.013,1.67.8,1.776-1.9-.451-1.442,1.308-.161-1.938-1.687-.974,1.8-.752Z" transform="translate(-43.869 -22.476)" fill="#ff6a00"/>
        <path id="Path_23415" data-name="Path 23415" d="M133.328,21.87l.5,1.364,1.414.362-1.141.9.095,1.453-1.214-.807-1.353.54.4-1.4-.935-1.119,1.459-.061Z" transform="translate(-32.948 -10.78)" fill="#0d906d"/>
        <path id="Path_23416" data-name="Path 23416" d="M100.535,32.07l-1.72-3.029-3.474-.3,2.35-2.572-.785-3.4,3.174,1.442,2.984-1.8-.39,3.469,2.634,2.283-3.413.7Z" transform="translate(-22.826 -11.161)" fill="#fcbc11"/>
        <path id="Path_23417" data-name="Path 23417" d="M11.205,79.716l-1.57-1.153-1.843.64L8.4,77.35,7.23,75.8H9.179l1.108-1.592.6,1.854,1.865.568-1.581,1.136Z" transform="translate(-3.204 -36.671)" fill="#ff6a00"/>
        <path id="Path_23418" data-name="Path 23418" d="M10.22,51.407l.713-1.269-.64-1.308,1.431.284L12.764,48.1l.173,1.448,1.286.685-1.325.607-.245,1.436L11.662,51.2Z" transform="translate(-4.529 -23.714)" fill="#fcbc11"/>
        <path id="Path_23419" data-name="Path 23419" d="M75.121,91.57l-.468,2.071,1.436,1.565-2.116.189-1.041,1.854L72.1,95.3l-2.088-.418,1.6-1.4-.245-2.11,1.821,1.086Z" transform="translate(-17.33 -50.842)" fill="#0d906d"/>
        <path id="Path_23420" data-name="Path 23420" d="M93.856,100.85l.468,1.381,1.4.4-1.169.874.056,1.453-1.186-.841-1.37.5.434-1.392-.9-1.141,1.459-.022Z" transform="translate(-23.023 -55.044)" fill="#fcbc11"/>
        <path id="Path_23421" data-name="Path 23421" d="M137.784,91.473l-3.073-.941-2.517,1.993-.056-3.213-2.678-1.776L132.5,86.5l.863-3.1,1.932,2.567,3.213-.134-1.848,2.628Z" transform="translate(-29.252 -44.309)" fill="#fcbc11"/>
        <path id="Path_23422" data-name="Path 23422" d="M41.135,84.368l-3.268-.919-2.606,2.166-.134-3.391-2.867-1.81,3.179-1.175.841-3.291,2.1,2.667,3.385-.223-1.887,2.823Z" transform="translate(-7.756 -37.827)" fill="#fcbc11"/>
        <path id="Path_23423" data-name="Path 23423" d="M31.887,22.265l.173-2.255L30.3,18.59l2.2-.534.807-2.116,1.186,1.926,2.266.117-1.47,1.726.59,2.183-2.093-.863Z" transform="translate(-7.477 -7.064)" fill="#0d906d"/>
        <path id="Path_23424" data-name="Path 23424" d="M65.523,24.36,67.2,25.986l2.294-.457-1.03,2.093L69.6,29.66l-2.311-.334-1.587,1.72-.4-2.305-2.121-.974,2.066-1.091Z" transform="translate(-15.6 -12.063)" fill="#fcbc11"/>
        <path id="Path_23425" data-name="Path 23425" d="M112.472,86.676l-1.654-.735-1.542.941.189-1.8-1.375-1.175,1.771-.379.7-1.67.9,1.565,1.8.145-1.208,1.347Z" transform="translate(-28.952 -43.417)" fill="#ff6a00"/>
        <path id="Path_23426" data-name="Path 23426" d="M165.268,81.08l.763,1.242,1.459.072-.941,1.108.379,1.409-1.347-.551-1.219.8.106-1.453-1.136-.913,1.42-.345Z" transform="translate(-38.138 -39.967)" fill="#fcbc11"/>
        <path id="Path_23427" data-name="Path 23427" d="M85.032,3.99l.8,1.214,1.459.022-.908,1.141.429,1.4-1.37-.512-1.191.835.061-1.453-1.164-.88,1.4-.39Z" transform="translate(-20.9 -1.768)" fill="#ff6a00"/>
        <path id="Path_23428" data-name="Path 23428" d="M9.932,29.2c-.763-.479-1.526-.935-2.311-1.342s-1.581-.791-2.389-1.125-1.642-.6-2.455-.913-1.631-.6-2.45-.935a.531.531,0,0,1-.29-.69.518.518,0,0,1,.54-.323,11.6,11.6,0,0,1,2.678.64,14.564,14.564,0,0,1,2.472,1.219,19.747,19.747,0,0,1,2.266,1.537,19.628,19.628,0,0,1,2.021,1.821.071.071,0,0,1,0,.1A.068.068,0,0,1,9.932,29.2Z" transform="translate(0.001 -11.788)" fill="#9fff00"/>
        <path id="Path_23429" data-name="Path 23429" d="M59.435,10.613c-.223-.635-.451-1.253-.718-1.86s-.546-1.191-.852-1.759-.674-1.1-.98-1.659-.629-1.108-.908-1.7a.529.529,0,0,1,.251-.713.523.523,0,0,1,.585.089,7.143,7.143,0,0,1,1.281,1.637,9.153,9.153,0,0,1,.8,1.915,12.63,12.63,0,0,1,.5,2,13.934,13.934,0,0,1,.189,2.032.074.074,0,0,1-.072.072A.072.072,0,0,1,59.435,10.613Z" transform="translate(-14.11 -1.27)" fill="#9fff00"/>
        <path id="Path_23430" data-name="Path 23430" d="M171.536,27.812a13.531,13.531,0,0,1,2.906-2.878,9.42,9.42,0,0,1,1.765-1.091,7.08,7.08,0,0,1,1.993-.585.53.53,0,0,1,.317.991c-.579.323-1.164.579-1.737.857s-1.18.49-1.765.779-1.153.6-1.72.935-1.119.7-1.665,1.091a.071.071,0,0,1-.1-.017.076.076,0,0,1,0-.084Z" transform="translate(-41.767 -11.474)" fill="#9fff00"/>
        <path id="Path_23431" data-name="Path 23431" d="M119.181,9.37a16.26,16.26,0,0,1-.161-2.333,16.6,16.6,0,0,1,.161-2.35,11.747,11.747,0,0,1,.49-2.316A9.342,9.342,0,0,1,120.7.233a.529.529,0,0,1,.952.429c-.195.741-.434,1.436-.657,2.144s-.507,1.4-.718,2.116-.4,1.448-.557,2.188-.284,1.492-.39,2.26a.07.07,0,0,1-.139,0Z" transform="translate(-30.254 0.001)" fill="#9fff00"/>
        <path id="Path_23432" data-name="Path 23432" d="M151.584,93.971a25.832,25.832,0,0,1,4.788,4.655,18.9,18.9,0,0,1,1.915,2.773,16.05,16.05,0,0,1,1.325,3.1.521.521,0,0,1-.351.651.537.537,0,0,1-.612-.245l-1.576-2.828c-.535-.93-1.03-1.887-1.609-2.806s-1.2-1.8-1.86-2.673-1.37-1.7-2.11-2.522a.076.076,0,0,1,0-.1.068.068,0,0,1,.089,0Z" transform="translate(-35.884 -54.99)" fill="#9fff00"/>
        <path id="Path_23433" data-name="Path 23433" d="M20.713,94.837c-.551.384-1.091.763-1.6,1.18s-1,.841-1.475,1.286-.885.941-1.342,1.381-.908.9-1.4,1.325a.535.535,0,0,1-.752-.05.524.524,0,0,1-.067-.59,7.322,7.322,0,0,1,1.242-1.67,9.508,9.508,0,0,1,1.637-1.275,13.25,13.25,0,0,1,1.8-1.008,13.413,13.413,0,0,1,1.91-.718.072.072,0,0,1,.061.128Z" transform="translate(-6.209 -47.316)" fill="#9fff00"/>
        <path id="Path_23434" data-name="Path 23434" d="M173.432,70.66a12.007,12.007,0,0,1,1.771.256,11.258,11.258,0,0,1,1.732.523,8.239,8.239,0,0,1,1.648.774,6.1,6.1,0,0,1,1.364,1.2.537.537,0,0,1-.078.752.543.543,0,0,1-.568.067,16.911,16.911,0,0,1-1.47-.846c-.473-.29-.913-.646-1.392-.947s-.969-.585-1.475-.863-1.03-.523-1.565-.774a.072.072,0,0,1-.033-.095.06.06,0,0,1,.067-.039Z" transform="translate(-42.583 -34.805)" fill="#9fff00"/>
        <path id="Path_23435" data-name="Path 23435" d="M57.687,88.3c-.635,1.019-1.236,2.049-1.776,3.107s-1.036,2.132-1.47,3.229-.774,2.222-1.158,3.329-.713,2.233-1.086,3.357a.524.524,0,0,1-1.019-.217,17.575,17.575,0,0,1,.785-3.58,20.454,20.454,0,0,1,1.47-3.357,29.972,29.972,0,0,1,1.882-3.123,25.865,25.865,0,0,1,2.26-2.834.071.071,0,0,1,.1,0A.068.068,0,0,1,57.687,88.3Z" transform="translate(-9.622 -47.433)" fill="#9fff00"/>
        <path id="Path_23436" data-name="Path 23436" d="M114.376,100.04a13.532,13.532,0,0,1,1.008,1.776,13.133,13.133,0,0,1,.735,1.921,9.021,9.021,0,0,1,.44,2.027,7.04,7.04,0,0,1-.117,2.077.531.531,0,0,1-1.041-.028c-.111-.657-.161-1.286-.228-1.926s-.072-1.281-.145-1.921-.184-1.286-.306-1.932-.29-1.286-.473-1.938a.072.072,0,0,1,.05-.089.064.064,0,0,1,.078.028Z" transform="translate(-29.107 -57.668)" fill="#9fff00"/>
      </g>
    </g>
  </g>
</svg>
