<svg xmlns="http://www.w3.org/2000/svg" width="26" height="26.506" viewBox="0 0 26 26.506">
  <g id="Date" transform="translate(-9285 -7368)">
    <rect id="Rectangle_6591" data-name="Rectangle 6591" width="26" height="26.506" rx="4" transform="translate(9285 7368)" fill="#f1efff"/>
    <g id="noun-calendar-5070346" transform="translate(9289 7372)">
      <path id="Path_23482" data-name="Path 23482" d="M115.961,35.841V34.119a3.233,3.233,0,0,0-3.229-3.229h-1.507V29.814a.646.646,0,1,0-1.291,0V30.89H105.2V29.814a.646.646,0,1,0-1.291,0V30.89H102.4a3.232,3.232,0,0,0-3.229,3.229V44.45a3.232,3.232,0,0,0,3.229,3.229h9.47a2.339,2.339,0,0,0,.439-.043c.141.014.277.043.422.043h0a4.513,4.513,0,0,0,3.229-7.674Zm-15.5-1.722a1.939,1.939,0,0,1,1.937-1.937h1.507v1.076a.646.646,0,1,0,1.291,0V32.182h4.735v1.076a.646.646,0,1,0,1.291,0V32.182h1.507a1.94,1.94,0,0,1,1.937,1.937v1.076H100.463ZM102.4,46.388a1.939,1.939,0,0,1-1.937-1.937V36.487h14.206v2.606a4.507,4.507,0,0,0-5.091,7.3Zm10.332,0a3.233,3.233,0,1,1,2.282-.947A3.229,3.229,0,0,1,112.732,46.388Z" transform="translate(-99.172 -29.168)" fill="#5a5fc7"/>
      <path id="Path_23483" data-name="Path 23483" d="M406.616,360.182l-1.84,1.84-.689-.689h0a.646.646,0,0,0-.913.913l1.143,1.146a.647.647,0,0,0,.913,0l2.3-2.294a.646.646,0,0,0-.913-.914Z" transform="translate(-391.791 -347.796)" fill="#5a5fc7"/>
    </g>
  </g>
</svg>
