<svg xmlns="http://www.w3.org/2000/svg" width="50.151" height="50" viewBox="0 0 50.151 50">
  <g id="Hyderabad_Icons" data-name="Hyderabad Icons" transform="translate(-0.37 -0.36)">
    <path id="Path_25837" data-name="Path 25837" d="M50.435,8.539v.969c-.323.882-.667,1.743-.969,2.518.3.409.624.861.969,1.291v2.346c-.28.56-.581,1.119-1.248,1.227-.409.065-.43.258-.43.581v5.7a3.979,3.979,0,0,0,.022.5c.646,0,1.291-.086,1.657.581V50.36H.951A1.363,1.363,0,0,1,.37,49.069V24.617a.852.852,0,0,1,.947-.947h.732V17.278a.514.514,0,0,0-.3-.366A1.647,1.647,0,0,1,.413,15.319V14.135a1.884,1.884,0,0,1,1.119-2.088c-.065-.108-.086-.172-.129-.237a4.8,4.8,0,0,1-.8-4.262A6.419,6.419,0,0,1,2.5,4.579a10.087,10.087,0,0,0,2.174-3.1A1.6,1.6,0,0,1,6.289.382,1.656,1.656,0,0,1,7.817,1.544,9.155,9.155,0,0,0,9.668,4.277c.452.474.882.947,1.291,1.464a4.975,4.975,0,0,1,.086,6.07,2,2,0,0,0-.108.215,1.756,1.756,0,0,1,1.1,1.916c-.022.43,0,.882,0,1.313a1.511,1.511,0,0,1-1.291,1.593c-.323.065-.387.215-.366.5v2.3a.59.59,0,0,0,.667.667h29.1c.28.022.366-.086.366-.366V17.3c0-.28-.108-.387-.387-.452a2.157,2.157,0,0,1-.8-.409c-.732-.667-.732-3.293,0-3.982a6.283,6.283,0,0,1,.6-.452,5.09,5.09,0,0,1-1.076-2.647A5.573,5.573,0,0,1,40.6,4.9a12.5,12.5,0,0,0,2.6-3.638,1.492,1.492,0,0,1,1.464-.9,1.526,1.526,0,0,1,1.485.947,10.771,10.771,0,0,0,2.432,3.444A6.262,6.262,0,0,1,50.262,7.4c.108.344.172.689.258,1.033ZM21.248,48.724v-7.6a8,8,0,0,1,.237-2.023,7.682,7.682,0,0,1,3.1-3.982,1.473,1.473,0,0,1,1.851.172,26.214,26.214,0,0,1,1.873,1.916,4.787,4.787,0,0,1,1.184,3.186c0,2.54,0,5.08.022,7.619v.667h1.7v-15.8H19.526V48.7h1.7Zm-10.87-7.512H2.049V48.7H10.4v-7.49ZM40.4,48.7h8.351v-7.49H40.4V48.7Zm-12.527,0a1.372,1.372,0,0,0,.043-.194c0-2.647.022-5.316,0-7.964-.022-1.83-1.27-2.927-2.518-4.046-.258.237-.452.409-.667.581a5.193,5.193,0,0,0-1.894,4.3c.086,2.238,0,4.5,0,6.737a5.245,5.245,0,0,0,.022.581h4.994ZM6.246,2.082c-.5.8-.947,1.614-1.507,2.368-.581.775-1.27,1.442-1.873,2.2A4.266,4.266,0,0,0,2.243,7.7a3.012,3.012,0,0,0,2.5,4.3A17.267,17.267,0,0,0,7.9,11.961a2.813,2.813,0,0,0,2.432-2.5,3.543,3.543,0,0,0-.926-2.97A16.382,16.382,0,0,1,6.224,2.1h0Zm38.4-.065a.687.687,0,0,0-.151.129,13.111,13.111,0,0,1-2.8,3.96A5.929,5.929,0,0,0,40.62,7.764,3,3,0,0,0,43.181,12a18.432,18.432,0,0,0,2.884,0,2.877,2.877,0,0,0,2.69-2.518A3.648,3.648,0,0,0,47.7,6.365a13.39,13.39,0,0,1-3.056-4.326Zm-34.266,34.2V28.707H2.049v7.512Zm30.026,0h8.351v-7.49H40.4v7.49ZM12.036,37.9V48.724h5.833V37.9Zm20.878,0V48.724h5.833V37.9Zm7.512-15.82H10.379v1.636H40.426ZM17.89,28.707H12.359c-.344,0-.344.194-.344.452v6.694c0,.344.108.452.452.452h5.446V28.728Zm15.045,7.512a.667.667,0,0,0,.151.043h5.381c.344,0,.344-.194.344-.452V29.116c0-.344-.108-.452-.452-.452H32.936v7.512ZM8.743,23.692V17.256c0-.086-.237-.258-.344-.258H3.964a.82.82,0,0,0-.215.065v6.651H8.764ZM47.1,17c-.215,0-.387-.022-.581-.022h-3.9c-.43,0-.581.108-.581.56.022,1.873,0,3.745,0,5.618a4.682,4.682,0,0,0,.022.538h5.015V17.019ZM19.526,28.685c0,.71.022,1.356,0,2,0,.43.086.56.538.56,2.109-.022,4.2,0,6.306,0h4.5c.151,0,.409-.151.409-.237.043-.753,0-1.507,0-2.3H19.526Zm11.731-3.315H19.569v1.636H31.257ZM2.027,15.384H9.238c1.184,0,1.162,0,1.184-1.184,0-.452-.151-.581-.581-.581H2.565a4.681,4.681,0,0,0-.538.022v1.722ZM48.756,13.64H41.588c-1.248,0-1.227,0-1.227,1.227,0,.409.129.517.538.517h7.361a3.978,3.978,0,0,0,.5-.022V13.64ZM2.049,25.371v1.636h8.33V25.371Zm46.707,0H40.4v1.636h8.351V25.371ZM2.027,39.533h8.351V37.9H2.027Zm38.377,0h8.351V37.876H40.4v1.657ZM12.014,27.007h5.854V25.349H12.294c-.086,0-.258.151-.258.237-.022.474,0,.926,0,1.421Zm26.754.022V25.392H32.936v1.636Z" transform="translate(0 0)" fill="#707070"/>
    <path id="Path_25838" data-name="Path 25838" d="M3.539,16.317V17.2a.794.794,0,0,1-.732.775.765.765,0,0,1-.839-.667,14.87,14.87,0,0,1,0-1.959.726.726,0,0,1,.839-.646.794.794,0,0,1,.732.775v.839Z" transform="translate(1.803 16.523)" fill="#707070"/>
    <path id="Path_25839" data-name="Path 25839" d="M5.067,16.348v.882a.762.762,0,0,1-.753.753.726.726,0,0,1-.8-.646,15.53,15.53,0,0,1,0-2,.722.722,0,0,1,.839-.624.736.736,0,0,1,.689.753v.882Z" transform="translate(3.59 16.534)" fill="#707070"/>
    <path id="Path_25840" data-name="Path 25840" d="M21.343,16.327v-.882a.736.736,0,0,1,.71-.732.677.677,0,0,1,.818.581,10.815,10.815,0,0,1,0,2.045c-.043.43-.387.624-.818.624a.8.8,0,0,1-.753-.775v-.882Z" transform="translate(24.119 16.534)" fill="#707070"/>
    <path id="Path_25841" data-name="Path 25841" d="M19.77,16.3v-.882a.721.721,0,0,1,.732-.71.69.69,0,0,1,.818.6,10.815,10.815,0,0,1,0,2.045.687.687,0,0,1-.818.6.721.721,0,0,1-.71-.732V16.3Z" transform="translate(22.356 16.536)" fill="#707070"/>
    <path id="Path_25842" data-name="Path 25842" d="M8.584,22.336v2.734a.862.862,0,0,1-.818.969.844.844,0,0,1-.8-.926V19.538c0-.581.344-.969.818-.947.474,0,.8.387.8.969v2.777Z" transform="translate(7.606 21.008)" fill="#707070"/>
    <path id="Path_25843" data-name="Path 25843" d="M16.28,22.261V19.527a.836.836,0,0,1,.775-.947.858.858,0,0,1,.839.947V25.1a.846.846,0,0,1-.839.947c-.474,0-.775-.387-.775-.947Z" transform="translate(18.335 20.997)" fill="#707070"/>
    <path id="Path_25844" data-name="Path 25844" d="M8.581,16.365v1.227a.8.8,0,1,1-1.593.043c-.022-.839-.022-1.679,0-2.54a.786.786,0,0,1,.839-.775.815.815,0,0,1,.775.839v1.227Z" transform="translate(7.609 16.087)" fill="#707070"/>
    <path id="Path_25845" data-name="Path 25845" d="M16.28,16.322V15.159a.788.788,0,0,1,.775-.839.813.813,0,0,1,.839.775c.022.839.022,1.679,0,2.54a.786.786,0,0,1-.818.8.8.8,0,0,1-.775-.882V16.322Z" transform="translate(18.335 16.087)" fill="#707070"/>
  </g>
</svg>
