<svg xmlns="http://www.w3.org/2000/svg" width="26" height="26.506" viewBox="0 0 26 26.506">
  <g id="Location" transform="translate(-9372 -7368)">
    <rect id="Rectangle_6594" data-name="Rectangle 6594" width="26" height="26.506" rx="4" transform="translate(9372 7368)" fill="#f1efff"/>
    <path id="noun-place-2633130" d="M181.006,22.3a2.4,2.4,0,1,0-1.7-.7A2.4,2.4,0,0,0,181.006,22.3Zm0-3.6a1.2,1.2,0,1,1-.849.352A1.2,1.2,0,0,1,181.006,18.7Zm-2.4,10.108v2.5a2.4,2.4,0,0,0,4.8,0v-2.5a1.8,1.8,0,0,0,1.2-1.7v-1.8a2.4,2.4,0,0,0-2.4-2.4h-2.4a2.4,2.4,0,0,0-2.4,2.4v1.8a1.8,1.8,0,0,0,1.2,1.7Zm0-3.5a1.2,1.2,0,0,1,1.2-1.2h2.4a1.2,1.2,0,0,1,1.2,1.2v1.8a.6.6,0,0,1-.6.6.6.6,0,0,0-.6.6v3a1.2,1.2,0,1,1-2.4,0v-3a.6.6,0,0,0-.6-.6.6.6,0,0,1-.6-.6Zm8.408,7.808c0,1.652-3.111,2.4-6.006,2.4S175,34.767,175,33.115c0-.5.306-1.2,1.754-1.76a.6.6,0,0,1,.426,1.123c-.8.306-.979.595-.979.637,0,.306,1.688,1.2,4.8,1.2s4.8-.895,4.8-1.2c0-.042-.174-.336-.991-.637a.6.6,0,1,1,.42-1.129c1.465.565,1.772,1.261,1.772,1.766Z" transform="translate(9204 7355.5)" fill="#5a5fc7"/>
  </g>
</svg>
