<svg xmlns="http://www.w3.org/2000/svg" width="67" height="67" viewBox="0 0 67 67">
  <g id="New_Kochi" data-name="New Kochi" transform="translate(-1994 11051.508)">
    <rect id="Rectangle_6840" data-name="Rectangle 6840" width="67" height="67" transform="translate(1994 -11051.508)" fill="#fff" opacity="0"/>
    <g id="kochi" transform="translate(1981.037 -10512.93)">
      <path id="Path_25946" data-name="Path 25946" d="M29.154-531.558a15.661,15.661,0,0,0-10.265,5.48,22.4,22.4,0,0,0-2.474,3.559c-.174.38-.184.488-.065.771.2.467.553.586,1.248.423.76-.185,3.082-.988,4.178-1.443.5-.217.933-.391.955-.391a.939.939,0,0,1-.174.347c-.119.2-.467.846-.76,1.443a32.8,32.8,0,0,0-2.615,18.425l.217,1.714-.412.456a9.366,9.366,0,0,0,.119,12.631,9.071,9.071,0,0,0,4.1,2.55l.792.25,22.787.033c16.656.022,23,0,23.579-.087a8.971,8.971,0,0,0,6.966-5.577,9.443,9.443,0,0,0-1.9-9.983l-.586-.619L75-502.684c.955-6.869-.109-13.976-2.886-19.271a3.97,3.97,0,0,1-.51-1.172,36.133,36.133,0,0,0,5.534,1.921,1.145,1.145,0,0,0,.543-.326c.412-.412.369-.618-.315-1.736A20.844,20.844,0,0,0,72-529.041a14.251,14.251,0,0,0-8.019-2.507c-2.724,0-3.158.141-6.077,2.105a42.115,42.115,0,0,0-10.135,9.581c-.694.977-.76,1.335-.326,1.769.239.239.326.26.781.2a20.861,20.861,0,0,0,7.845-3.093,10.135,10.135,0,0,1,.933-.618c.011.022-.119.586-.293,1.27a30.609,30.609,0,0,0-1.031,6.956.831.831,0,0,0,1.129.532,21.184,21.184,0,0,0,3.613-3.809,16.9,16.9,0,0,0,2.724-5.979l.141-.673.89,1.66a38.739,38.739,0,0,0,4.33,6.532c.8.977,1.1,1.161,1.606,1.031.488-.12.6-.543.6-2.311a21.493,21.493,0,0,0-.477-4.633,3.785,3.785,0,0,1-.141-.792,23.125,23.125,0,0,1,1.649,3.44A31.562,31.562,0,0,1,73.5-506.666a24.351,24.351,0,0,1-.358,3.9,2.4,2.4,0,0,1-.662-.228,13.955,13.955,0,0,0-2.387-.695l-.25-.043v9.332H66.7v-7.107l1.042-2.149c.944-1.931,1.042-2.181.955-2.5-.184-.607-.206-.618-5.36-.618H58.6l-.369-.564c-1.2-1.834-4.547-3.266-8.551-3.679A31.059,31.059,0,0,0,43-510.8a14,14,0,0,0-5.838,2.289,5.032,5.032,0,0,0-1.335,1.519c-.065.217-.184.217-4.677.217H26.539l-.26.271a.872.872,0,0,0-.271.521,20.486,20.486,0,0,0,.922,2.5l.922,2.235v6.847H24.488v-9.321l-.966.26a14.022,14.022,0,0,0-1.7.6,6.281,6.281,0,0,1-.76.3c-.011-.022-.087-.543-.174-1.172a40.978,40.978,0,0,1-.13-4.178,25.1,25.1,0,0,1,.25-4.612,31.5,31.5,0,0,1,1.27-5.35c.619-1.79,2.29-5.067,1.79-3.527a15.071,15.071,0,0,0-.5,4.623c0,2.311,0,2.322.26,2.528.445.358.857.271,1.4-.315a38.831,38.831,0,0,0,4.84-7.183c.727-1.411.933-1.66.933-1.183a9.227,9.227,0,0,0,.282,1.139,16.694,16.694,0,0,0,4.536,7.509c1.617,1.66,1.888,1.79,2.474,1.215.315-.326.326-.347.25-1.118a45.57,45.57,0,0,0-1.194-6.749c-.087-.3-.163-.575-.163-.618a5.96,5.96,0,0,1,1.063.64A19.257,19.257,0,0,0,44.5-518.2c1.465.369,2.083.391,2.355.043.38-.477.282-.781-.76-2.149a42.461,42.461,0,0,0-11.611-10.309,4.755,4.755,0,0,0-1.8-.749A20.037,20.037,0,0,0,29.154-531.558Zm-.054,2.127c-.293.25-.9.814-1.335,1.259a10.2,10.2,0,0,1-1.79,1.4,44.771,44.771,0,0,1-6.4,3.027c-.488.174-.488.163.336-.846a15.891,15.891,0,0,1,4.85-3.972,13.807,13.807,0,0,1,4.286-1.248c.206-.022.434-.043.488-.054S29.4-529.681,29.1-529.432Zm37-.228a13.246,13.246,0,0,1,5.263,2.268,20.469,20.469,0,0,1,3.342,3.288l.358.51-.846-.315a42.152,42.152,0,0,1-5.849-2.778,7.646,7.646,0,0,1-1.834-1.4c-.412-.434-1.031-1.009-1.356-1.291l-.6-.5.434.054C65.255-529.79,65.743-529.714,66.1-529.659Zm-28.972,2.908c.586.445,1.563,1.237,2.17,1.758a57.937,57.937,0,0,1,4.5,4.547l.239.336-.315-.076a21.379,21.379,0,0,1-3.353-1.411,13.175,13.175,0,0,1-3.223-2.528,11.629,11.629,0,0,1-2.3-3.3c-.629-1.367-.629-1.367.347-.716C35.664-527.826,36.532-527.207,37.129-526.751Zm22.407-1.063a13.176,13.176,0,0,1-6.38,6.554,13.937,13.937,0,0,1-2.919,1.1,29.153,29.153,0,0,1,3.657-3.9c.684-.651,1.747-1.573,2.366-2.062a32.563,32.563,0,0,1,3.581-2.517A4.3,4.3,0,0,1,59.537-527.815Zm-28.592-.315a35.355,35.355,0,0,1-2.973,6.652,40.761,40.761,0,0,1-2.648,4.037,7.75,7.75,0,0,1,.239-2.854,13.348,13.348,0,0,1,3.179-6.391,11.474,11.474,0,0,1,2.181-1.9C30.977-528.585,30.988-528.379,30.944-528.13Zm33.1.087a13.766,13.766,0,0,1,4.894,9.864l.065.933-.651-.922a45.4,45.4,0,0,1-4.557-8.377c-.445-1.139-.673-2.04-.51-2.04A5.928,5.928,0,0,1,64.04-528.043Zm-30.98.868a16.246,16.246,0,0,0,.814,1.628,27.317,27.317,0,0,1,1.9,5.36,36.092,36.092,0,0,1,.814,4.167,7.2,7.2,0,0,1-1.389-1.6,17.2,17.2,0,0,1-2.29-4.655,13.7,13.7,0,0,1-.456-4.08,6.149,6.149,0,0,1,.239-1.66C32.713-527.988,32.876-527.609,33.06-527.175Zm28.6-.141a15.737,15.737,0,0,1-.109,3.971A13.718,13.718,0,0,1,59.33-518.1a9.879,9.879,0,0,1-1.7,2.073,29.257,29.257,0,0,1,.781-4.036,26.6,26.6,0,0,1,2.17-5.968,12.685,12.685,0,0,0,.8-1.736c0-.087.043-.163.1-.163S61.62-527.652,61.663-527.316ZM48.794-509.379c3.147.25,5.968,1.118,7.238,2.235l.412.358H37.78l.38-.326c1.226-1.074,4.221-2.018,7.118-2.257A16.546,16.546,0,0,1,48.794-509.379Zm17.5,4.742c-.087.228-.434.933-.749,1.573l-.586,1.172v7.487H63.584l-.054-1.031a3.436,3.436,0,0,0-.4-1.725,4.053,4.053,0,0,0-1.942-1.888,2.937,2.937,0,0,0-1.6-.293,2.8,2.8,0,0,0-1.7.358,4.148,4.148,0,0,0-2.257,4.058c0,.477-.022.521-.26.521s-.26-.054-.326-.662a7.416,7.416,0,0,0-2.235-4.547,7.017,7.017,0,0,0-2.908-1.91,7.781,7.781,0,0,0-8.54,2.355,8.666,8.666,0,0,0-1.79,4.492c0,.239-.043.271-.38.271h-.38v-.586a4.13,4.13,0,0,0-2.257-3.993,2.8,2.8,0,0,0-1.7-.358,2.937,2.937,0,0,0-1.6.293,4.053,4.053,0,0,0-1.942,1.888,3.436,3.436,0,0,0-.4,1.725l-.054,1.031h-1.27v-7.14l-.705-1.7c-.391-.944-.705-1.736-.705-1.758s8.616-.033,19.141-.033H66.47Zm6.087,3.472a8.726,8.726,0,0,1,3.017,3.017,7.028,7.028,0,0,1,.89,3.635,6.383,6.383,0,0,1-.814,3.472,7.565,7.565,0,0,1-3.407,3.364c-1.443.695.163.651-24.795.651-25.348,0-23.232.065-24.957-.781a7.55,7.55,0,0,1-3.8-4.818,8.723,8.723,0,0,1-.054-3.559,7.891,7.891,0,0,1,2.355-4,9.527,9.527,0,0,1,1.964-1.27c.043,0,.076,1.975.076,4.395v4.395H71.473v-4.449c0-2.452.033-4.449.065-4.449S71.95-501.382,72.384-501.165ZM48.61-500.1a6.181,6.181,0,0,1,4,3.049,6.166,6.166,0,0,1,.738,2.344v.3H41.307v-.3a6.14,6.14,0,0,1,1.736-3.711A5.9,5.9,0,0,1,48.61-500.1Zm-12.848,2.648a2.443,2.443,0,0,1,1.313,2.42v.629H32.626v-.738a2.44,2.44,0,0,1,1.356-2.366A2.4,2.4,0,0,1,35.762-497.454Zm25.1.184a2.242,2.242,0,0,1,.955,2.073v.792H57.366v-.629a2.5,2.5,0,0,1,.575-1.834A2.207,2.207,0,0,1,60.86-497.269Z" transform="translate(-1.166 0)" fill="#707070"/>
      <path id="Path_25947" data-name="Path 25947" d="M15.434-89.659a.663.663,0,0,0-.184,1.181l.282.2h17.21l.282-.2A.659.659,0,0,0,33.1-89.5l-.206-.2-8.616-.017C19.448-89.726,15.564-89.7,15.434-89.659Z" transform="translate(0 -393.486)" fill="#707070"/>
      <path id="Path_25948" data-name="Path 25948" d="M441.01-89.917a.966.966,0,0,0-.412.375.46.46,0,0,0,0,.567.874.874,0,0,0,.456.384c.239.067,1.975.092,6.847.075l6.532-.025.25-.192a.644.644,0,0,0-.054-1.067l-.3-.2-6.532.008C444.081-89.992,441.151-89.958,441.01-89.917Z" transform="translate(-379.362 -393.662)" fill="#707070"/>
      <path id="Path_25949" data-name="Path 25949" d="M161.875-51.873c-.608.311-.51.988.152,1.195.532.167,11.817.167,12.348,0,.629-.191.749-.852.2-1.163-.26-.151-.456-.159-6.359-.159C162.8-52,162.092-51.984,161.875-51.873Z" transform="translate(-130.61 -427.014)" fill="#707070"/>
      <path id="Path_25950" data-name="Path 25950" d="M161.875-51.872c-.608.313-.51,1,.152,1.2.532.169,11.817.169,12.348,0,.629-.193.749-.859.2-1.172-.26-.153-.456-.161-6.359-.161C162.8-52,162.092-51.984,161.875-51.872Z" transform="translate(-117.156 -431.631)" fill="#707070"/>
    </g>
  </g>
</svg>
