<svg xmlns="http://www.w3.org/2000/svg" width="67" height="67" viewBox="0 0 67 67">
  <g id="New_Bengaluru" data-name="New Bengaluru" transform="translate(-1892 11042.508)">
    <rect id="Rectangle_6839" data-name="Rectangle 6839" width="67" height="67" transform="translate(1892 -11042.508)" fill="#fff" opacity="0"/>
    <g id="Edit_Benagluru" data-name="Edit Benagluru" transform="translate(1898.001 -11037.507)">
      <path id="Path_25958" data-name="Path 25958" d="M21.539,175.884a.865.865,0,0,0,.613-1.479.851.851,0,0,0-.613-.246.9.9,0,0,0-.869.9.867.867,0,0,0,.869.825h0Z" transform="translate(-15.328 -129.138)" fill="#6f7070"/>
      <path id="Path_25959" data-name="Path 25959" d="M191.491,175.884a.862.862,0,1,0,0-1.724.9.9,0,0,0-.869.9.867.867,0,0,0,.869.825h0Z" transform="translate(-141.343 -129.138)" fill="#6f7070"/>
      <path id="Path_25960" data-name="Path 25960" d="M22.407,203.236a.861.861,0,0,0-.256-.61.851.851,0,0,0-.613-.246.9.9,0,0,0-.869.9.867.867,0,0,0,.869.869.88.88,0,0,0,.631-.269.863.863,0,0,0,.238-.641h0Z" transform="translate(-15.328 -150.062)" fill="#6f7070"/>
      <path id="Path_25961" data-name="Path 25961" d="M191.5,202.22a.9.9,0,0,0-.869.9.869.869,0,0,0,1.737,0,.854.854,0,0,0-.24-.636.863.863,0,0,0-.631-.261h0Z" transform="translate(-141.351 -149.944)" fill="#6f7070"/>
      <path id="Path_25962" data-name="Path 25962" d="M22.031,135.3a.846.846,0,0,0-.615.246.857.857,0,0,0-.256.61v2.084a.869.869,0,0,0,1.737,0v-2.084a.856.856,0,0,0-.869-.856h0Z" transform="translate(-15.691 -100.323)" fill="#6f7070"/>
      <path id="Path_25963" data-name="Path 25963" d="M191.5,139.071a.867.867,0,0,0,.869-.869v-2.084a.869.869,0,1,0-1.737,0V138.2a.882.882,0,0,0,.253.615.866.866,0,0,0,.615.253Z" transform="translate(-141.351 -100.286)" fill="#6f7070"/>
      <path id="Path_25964" data-name="Path 25964" d="M1.5,57.788h53.6l.013-5.514-.039-10.638.01-1.2-.034-3.459V32.484h.217a.861.861,0,0,0,.028-1.722,4.389,4.389,0,0,0,0-1.448,3.681,3.681,0,0,0-1.448-2.4L50.89,24.669V23.579A.885.885,0,0,0,50.2,22.7a.869.869,0,0,0-1.05.851v1.13L46.345,26.9A3.563,3.563,0,0,0,44.9,29.3a3.894,3.894,0,0,0,0,1.448h-.168a.9.9,0,0,0-.915.822.868.868,0,0,0,.866.915h.463v1.347h-.305L41.046,31.2V28.971a2.9,2.9,0,0,0-2.433-2.9.683.683,0,0,0,0-.29V21.573a.845.845,0,0,0,.579-.277,7.134,7.134,0,0,0,.781-8.381V9.89a.846.846,0,0,0-.248-.618.874.874,0,0,0-1.486.618V11h0a8.039,8.039,0,0,0-.667-.478L31.145,6.343V2.724A2.743,2.743,0,0,0,28.4,0h-.29a2.736,2.736,0,0,0-2.766,2.722V6.341l-6.659,4.11c-.23.16-.463.318-.68.491V9.813h0a.868.868,0,0,0-.915-.866.9.9,0,0,0-.822.915v2.846a.362.362,0,0,0,0,.129,7.031,7.031,0,0,0-.925,2.59,7.113,7.113,0,0,0,1.709,5.791.831.831,0,0,0,.579.274v4.242a.609.609,0,0,0,0,.29,2.892,2.892,0,0,0-2.417,2.9v2.257l-3.792,2.634H11.12V32.464h.217a.861.861,0,0,0,.028-1.722,4.007,4.007,0,0,0,0-1.448,3.683,3.683,0,0,0-1.448-2.4L7.08,24.662V23.571a.885.885,0,0,0-.688-.874.871.871,0,0,0-1.052.851v1.13L2.532,26.893a3.619,3.619,0,0,0-1.448,2.4,3.894,3.894,0,0,0,0,1.448H.891a.885.885,0,0,0-.874.688.87.87,0,0,0,.851,1.05H1.33V36.97m10.483-1.3H25.55a2.541,2.541,0,0,0,0,.595v.812H9.928v-1.4H11.81Zm34.744,0v1.448H31.023V36.3a2.708,2.708,0,0,0-.088-.595H46.57l-.013-.044Zm3.4,20.267h-2.9V50.143h6.31v5.791Zm-29.6-17.2v2.446H14.432V38.735Zm3.2,0V52.749H22.107V38.735Zm2.795,0h4.865v2.446H25.351V38.735Zm8.063,0V52.749H32.964V38.735Zm7.657,0v2.446H36.147V38.735Zm3.185,0V52.749H43.807V38.735ZM11.234,54.486h34.02v1.448H11.234V54.486Zm9.12-8.96H14.432V42.905h5.92v2.621Zm-5.92,1.722h5.92v5.5h-5.92Zm16.778-1.737H25.349V42.905h5.92l-.059,2.606Zm-5.863,1.737h5.92v5.5h-5.92Zm16.778-1.737H36.147V42.905h5.92l.059,2.606Zm-5.979,1.737h5.92v5.5h-5.92Zm-23.452,5.5H11.247V38.735H12.7V52.749ZM53.3,48.507H47.061v-5.6h6.31l-.072,5.6ZM29.283,36.186V37H27.213v-.812a3.285,3.285,0,0,1,1.013-1.81A3.366,3.366,0,0,1,29.283,36.186ZM9.494,48.52H3.186V42.9H9.5V48.52Zm-6.31,1.737h6.31v5.791H3.186V50.257Zm43.474-20.7a1.944,1.944,0,0,1,.739-1.274l2.65-2.084,2.9,2.1h0a1.877,1.877,0,0,1,.7,1.259,2.269,2.269,0,0,1-.145,1.215H46.834a2.279,2.279,0,0,1-.173-1.215h0Zm.406,3h6.31v8.686h-6.31v-2.5h.447a.867.867,0,0,0,.869-.869V34.723a.867.867,0,0,0-.869-.869h-.447ZM33.4,23.186h0a.867.867,0,0,0-.869.869v2H29.115v-1.97a.869.869,0,0,0-1.737,0v2H24.033v-2a.869.869,0,0,0-1.737,0v2H19.4a1.3,1.3,0,0,0,0-.246V21.58H37.077v4.227a1.3,1.3,0,0,0,0,.246h-2.9v-1.97a.87.87,0,0,0-.856-.9Zm-3.244-15.4,6.776,4.141a5.417,5.417,0,0,1,1.448,7.921H31.139v-1.81a3.277,3.277,0,0,0-.23-1.145,4.515,4.515,0,0,0-2.172-2.345,1,1,0,0,0-.752,0,4.6,4.6,0,0,0-2.257,2.3,3.381,3.381,0,0,0-.261,1.246V19.9H18.113a5.379,5.379,0,0,1-1.057-4.1,5.468,5.468,0,0,1,2.521-3.823l6.7-4.141,3.878-.057Zm-2.9,10.25a1.571,1.571,0,0,1,.1-.579,2.429,2.429,0,0,1,.925-1.1,2.679,2.679,0,0,1,.928,1.1,1.843,1.843,0,0,1,.1.579v1.81h-2.1Zm1.174-16.3h0a.962.962,0,0,1,.7.284.972.972,0,0,1,.284.7v3.33h-2.3V2.717a.966.966,0,0,1,.284-.7.977.977,0,0,1,.7-.284h.333ZM17.053,28.961a1.174,1.174,0,0,1,1.174-1.174H38.264a1.187,1.187,0,0,1,1.187,1.174v1.287h-22.4V28.961Zm.217,3.025H39.218L41.9,33.854H30.069a9.908,9.908,0,0,0-1.287-1.347.862.862,0,0,0-1.1,0,9.381,9.381,0,0,0-1.274,1.347H14.595l2.678-1.869ZM9.062,33.852h0a.869.869,0,0,0-.869.869v3.141a.867.867,0,0,0,.869.869H9.5v2.446H3.186V32.49H9.5v1.3l-.434.057Zm-6.2-4.343h0a1.858,1.858,0,0,1,.724-1.272l2.65-2.084,2.9,2.1h0a1.877,1.877,0,0,1,.7,1.259,2.173,2.173,0,0,1-.145,1.215H3.026a2.173,2.173,0,0,1-.16-1.174v-.044Z" transform="translate(0)" fill="#6f7070"/>
    </g>
  </g>
</svg>
