<svg xmlns="http://www.w3.org/2000/svg" width="26" height="26.506" viewBox="0 0 26 26.506">
  <g id="Person" transform="translate(-9343 -7368)">
    <rect id="Rectangle_6593" data-name="Rectangle 6593" width="26" height="26.506" rx="4" transform="translate(9343 7368)" fill="#f1efff"/>
    <path id="Path_23522" data-name="Path 23522" d="M140.013,50a5.035,5.035,0,1,1,3.561-1.476A5.035,5.035,0,0,1,140.013,50Zm0-8.521a3.491,3.491,0,1,0,2.463,1.021,3.487,3.487,0,0,0-2.463-1.021Zm6.936,15.458a.774.774,0,0,1-.775-.775,6.162,6.162,0,0,0-12.324,0,.775.775,0,0,1-1.549,0,7.711,7.711,0,1,1,15.422,0,.773.773,0,0,1-.775.775Z" transform="translate(9215.698 7333.067)" fill="#5a5fc7"/>
  </g>
</svg>
